<svg id="visual" viewBox="0 0 960 540" width="960" height="540" xmlns="http://www.w3.org/2000/svg" xmlns:xlink="http://www.w3.org/1999/xlink" version="1.1"><path d="M0 407L22.8 411.3C45.7 415.7 91.3 424.3 137 413.2C182.7 402 228.3 371 274 358.7C319.7 346.3 365.3 352.7 411.2 373.7C457 394.7 503 430.3 548.8 440.3C594.7 450.3 640.3 434.7 686 417.2C731.7 399.7 777.3 380.3 823 369.7C868.7 359 914.3 357 937.2 356L960 355L960 541L937.2 541C914.3 541 868.7 541 823 541C777.3 541 731.7 541 686 541C640.3 541 594.7 541 548.8 541C503 541 457 541 411.2 541C365.3 541 319.7 541 274 541C228.3 541 182.7 541 137 541C91.3 541 45.7 541 22.8 541L0 541Z" fill="#0066FF" stroke-linecap="round" stroke-linejoin="miter"></path></svg>